<svg width="15" height="21" viewBox="0 0 15 21" fill="none" xmlns="http://www.w3.org/2000/svg">
<path d="M8.75 5.8125V0.5H0.9375C0.390625 0.5 0 0.929688 0 1.4375V19.5625C0 20.1094 0.390625 20.5 0.9375 20.5H14.0625C14.5703 20.5 15 20.1094 15 19.5625V6.75H9.6875C9.14062 6.75 8.75 6.35938 8.75 5.8125ZM11.7188 14.0938L7.96875 17.8438C7.69531 18.0781 7.26562 18.0781 6.99219 17.8438L3.24219 14.0938C2.85156 13.7031 3.125 13 3.67188 13H6.25V9.875C6.25 9.5625 6.52344 9.25 6.875 9.25H8.125C8.4375 9.25 8.75 9.5625 8.75 9.875V13H11.2891C11.8359 13 12.1094 13.7031 11.7188 14.0938ZM14.7266 4.60156L10.8984 0.773438C10.7031 0.617188 10.4688 0.5 10.2344 0.5H10V5.5H15V5.26562C15 5.03125 14.8828 4.79688 14.7266 4.60156Z" fill="#597492"/>
</svg>
